<?xml version="1.0" encoding="UTF-8"?>
<svg xmlns="http://www.w3.org/2000/svg" xmlns:xlink="http://www.w3.org/1999/xlink" width="180pt" height="72pt" viewBox="0 0 180 72" version="1.1">
<g id="surface1">
<path style=" stroke:none;fill-rule:nonzero;fill:rgb(100%,20%,40%);fill-opacity:1;" d="M 112.464844 36 C 112.464844 38.308594 110.597656 40.175781 108.289062 40.175781 C 105.980469 40.175781 104.113281 38.308594 104.113281 36 C 104.113281 33.691406 105.980469 31.824219 108.289062 31.824219 C 110.597656 31.824219 112.464844 33.691406 112.464844 36 Z M 112.464844 36 "/>
<path style=" stroke:none;fill-rule:nonzero;fill:rgb(5.882353%,46.27451%,60%);fill-opacity:1;" d="M 102.816406 36 C 102.8125 33.683594 104.273438 31.617188 106.460938 30.847656 C 106.3125 28.835938 105.898438 26.855469 105.230469 24.953125 C 104.460938 22.769531 103.234375 20.773438 101.632812 19.101562 C 100.046875 17.4375 98.042969 16.117188 95.695312 15.15625 C 93.390625 14.21875 90.683594 13.742188 87.648438 13.742188 L 34.09375 13.742188 C 31.054688 13.742188 28.34375 14.21875 26.050781 15.15625 C 23.699219 16.117188 21.703125 17.4375 20.109375 19.101562 C 18.507812 20.773438 17.285156 22.769531 16.519531 24.953125 C 15.796875 27 15.371094 29.140625 15.257812 31.304688 L 15.257812 31.347656 C 15.183594 32.90625 15.152344 34.46875 15.15625 36.03125 C 15.15625 37.664062 15.191406 39.203125 15.265625 40.613281 L 15.265625 40.644531 C 15.378906 42.808594 15.804688 44.949219 16.523438 46.996094 C 17.289062 49.179688 18.515625 51.175781 20.117188 52.847656 C 21.710938 54.511719 23.707031 55.835938 26.058594 56.792969 C 28.359375 57.726562 31.066406 58.203125 34.101562 58.203125 L 87.660156 58.203125 C 90.699219 58.203125 93.40625 57.726562 95.699219 56.792969 C 98.050781 55.835938 100.054688 54.511719 101.640625 52.847656 C 103.246094 51.175781 104.46875 49.179688 105.238281 46.996094 C 105.894531 45.113281 106.304688 43.15625 106.460938 41.167969 C 104.335938 40.398438 102.816406 38.375 102.816406 36 Z M 42.207031 51.945312 C 41.652344 52.261719 41.0625 52.550781 40.4375 52.808594 C 38.914062 53.429688 37.144531 53.78125 35.121094 53.878906 L 34.101562 53.878906 C 31.613281 53.878906 29.476562 53.507812 27.683594 52.785156 C 25.890625 52.058594 24.40625 51.078125 23.234375 49.84375 C 22.054688 48.617188 21.15625 47.148438 20.601562 45.539062 C 20.011719 43.882812 19.667969 42.148438 19.578125 40.394531 C 19.507812 38.933594 19.476562 37.476562 19.476562 36.015625 C 19.476562 34.460938 19.511719 32.964844 19.578125 31.535156 C 19.675781 29.742188 20.015625 28.03125 20.597656 26.386719 C 21.179688 24.746094 22.058594 23.3125 23.234375 22.082031 C 24.40625 20.859375 25.898438 19.878906 27.683594 19.144531 C 29.285156 18.5 31.15625 18.136719 33.304688 18.0625 C 33.539062 18.070312 33.777344 18.078125 34.019531 18.078125 C 36.507812 18.078125 38.640625 18.445312 40.4375 19.175781 C 40.5 19.199219 40.5625 19.230469 40.636719 19.261719 L 31.585938 26.207031 L 31.570312 26.207031 C 31.355469 26.371094 31.167969 26.558594 31.015625 26.769531 C 30.632812 27.007812 30.296875 27.3125 30.019531 27.667969 C 29.605469 28.210938 29.300781 28.828125 29.125 29.484375 C 28.914062 30.230469 28.796875 31 28.777344 31.773438 C 28.613281 34.558594 28.613281 37.347656 28.777344 40.132812 C 28.8125 40.960938 28.921875 41.722656 29.101562 42.421875 C 29.285156 43.121094 29.585938 43.726562 29.996094 44.234375 C 30.414062 44.75 30.945312 45.160156 31.613281 45.453125 C 32.28125 45.75 33.101562 45.898438 34.101562 45.898438 C 35.09375 45.898438 35.921875 45.75 36.582031 45.453125 C 37.210938 45.183594 37.769531 44.765625 38.203125 44.234375 C 38.625 43.726562 38.914062 43.121094 39.097656 42.421875 C 39.277344 41.722656 39.382812 40.960938 39.421875 40.132812 C 39.507812 38.328125 39.535156 36.523438 39.511719 34.71875 L 42.222656 32.675781 L 42.222656 51.949219 Z M 52.625 53.28125 C 52.574219 53.355469 52.515625 53.421875 52.453125 53.484375 C 52.222656 53.71875 51.945312 53.847656 51.648438 53.878906 L 44.855469 53.878906 C 44.550781 53.847656 44.261719 53.710938 44.050781 53.488281 C 43.996094 53.4375 43.945312 53.378906 43.90625 53.316406 C 43.84375 52.980469 43.761719 52.648438 43.65625 52.324219 L 43.65625 29.792969 L 39.46875 32.964844 L 37.730469 34.269531 C 37.695312 34.300781 37.65625 34.324219 37.617188 34.34375 C 37.601562 34.351562 37.597656 34.359375 37.585938 34.367188 C 37.5625 34.378906 37.539062 34.394531 37.511719 34.40625 L 37.46875 34.429688 C 37.449219 34.445312 37.417969 34.453125 37.398438 34.464844 C 37.386719 34.472656 37.371094 34.480469 37.351562 34.480469 C 37.324219 34.488281 37.296875 34.503906 37.265625 34.507812 C 37.261719 34.507812 37.246094 34.519531 37.238281 34.519531 C 37.199219 34.523438 37.160156 34.539062 37.125 34.542969 L 37.101562 34.542969 C 37.070312 34.550781 37.039062 34.550781 37.007812 34.550781 L 36.84375 34.550781 C 36.796875 34.550781 36.765625 34.542969 36.71875 34.542969 C 36.675781 34.535156 36.628906 34.53125 36.582031 34.523438 C 36.277344 34.453125 36.007812 34.277344 35.820312 34.027344 L 32.144531 29.253906 C 32.082031 29.183594 32.035156 29.105469 31.996094 29.023438 C 31.878906 28.785156 31.84375 28.519531 31.894531 28.261719 C 31.953125 27.902344 32.148438 27.582031 32.441406 27.367188 L 34.179688 26.035156 L 43.148438 19.152344 C 43.46875 18.910156 43.792969 18.679688 44.121094 18.453125 C 44.453125 18.222656 44.832031 18.09375 45.25 18.0625 L 50.746094 18.070312 C 51.40625 18.070312 51.90625 18.25 52.238281 18.621094 C 52.53125 18.949219 52.738281 19.195312 52.847656 19.359375 L 52.832031 35.066406 L 52.855469 52.535156 C 52.851562 52.800781 52.773438 53.0625 52.625 53.28125 Z M 78.25 52.535156 C 78.25 52.90625 78.117188 53.21875 77.851562 53.484375 C 77.640625 53.703125 77.351562 53.839844 77.046875 53.871094 L 70.257812 53.871094 C 69.953125 53.839844 69.664062 53.703125 69.449219 53.484375 C 69.195312 53.234375 69.050781 52.894531 69.054688 52.535156 L 69.054688 35.070312 L 64.367188 43.269531 C 64.175781 43.570312 63.953125 43.84375 63.699219 44.089844 C 63.417969 44.375 63.03125 44.515625 62.53125 44.515625 L 59.351562 44.515625 C 58.851562 44.515625 58.464844 44.371094 58.183594 44.089844 C 57.929688 43.84375 57.707031 43.570312 57.511719 43.269531 L 54.289062 37.625 L 54.289062 21.824219 L 60.941406 33.191406 L 68.996094 19.410156 C 69.101562 19.246094 69.3125 18.980469 69.648438 18.613281 C 69.976562 18.242188 70.472656 18.0625 71.136719 18.0625 L 77.039062 18.058594 C 77.351562 18.085938 77.617188 18.21875 77.84375 18.445312 C 78.109375 18.714844 78.242188 19.03125 78.242188 19.390625 L 78.242188 52.535156 Z M 100.199219 47.558594 C 100.152344 47.664062 100.109375 47.753906 100.078125 47.816406 C 99.632812 48.546875 99.109375 49.222656 98.515625 49.839844 C 97.34375 51.0625 95.851562 52.042969 94.066406 52.777344 C 92.285156 53.507812 90.136719 53.871094 87.652344 53.871094 L 83.867188 53.871094 C 82.429688 53.769531 81.011719 53.5 79.640625 53.074219 C 79.675781 52.898438 79.6875 52.71875 79.6875 52.53125 L 79.6875 43.101562 C 79.746094 43.140625 79.808594 43.195312 79.871094 43.242188 C 80 43.375 80.203125 43.589844 80.46875 43.890625 C 80.789062 44.238281 81.148438 44.546875 81.539062 44.8125 C 81.988281 45.128906 82.546875 45.402344 83.230469 45.632812 C 83.90625 45.863281 84.75 45.980469 85.742188 45.980469 C 87.503906 45.980469 88.96875 45.789062 90.144531 45.410156 C 91.320312 45.03125 91.90625 44.339844 91.90625 43.34375 C 91.90625 42.847656 91.691406 42.429688 91.261719 42.101562 C 90.828125 41.765625 90.179688 41.457031 89.324219 41.175781 C 88.460938 40.894531 87.359375 40.621094 86.015625 40.355469 C 84.429688 40.039062 82.847656 39.707031 81.265625 39.363281 C 80.738281 39.25 80.214844 39.121094 79.695312 38.972656 L 79.695312 19.390625 C 79.695312 19.253906 79.6875 19.117188 79.671875 18.988281 C 81.539062 18.367188 83.5 18.058594 85.46875 18.0625 L 87.5625 18.210938 C 90.078125 18.640625 90.949219 18.851562 92.742188 19.578125 C 94.535156 20.304688 95.257812 20.859375 96.558594 21.953125 C 97.929688 23.105469 99.070312 24.746094 99.644531 26.386719 C 99.84375 26.941406 100.015625 27.511719 100.152344 28.078125 C 100.152344 28.101562 100.144531 28.125 100.144531 28.152344 C 100.101562 28.355469 100 28.539062 99.851562 28.683594 C 99.632812 28.898438 99.394531 29.011719 99.128906 29.011719 L 92.617188 29.011719 C 92.148438 29.011719 91.777344 28.941406 91.496094 28.804688 C 91.179688 28.648438 90.886719 28.449219 90.628906 28.207031 C 90.523438 28.109375 90.367188 27.941406 90.152344 27.714844 C 89.9375 27.484375 89.625 27.238281 89.226562 26.992188 C 88.832031 26.742188 88.335938 26.53125 87.738281 26.347656 C 87.140625 26.164062 86.414062 26.074219 85.550781 26.074219 C 84.917969 26.074219 84.308594 26.113281 83.734375 26.195312 C 83.207031 26.265625 82.691406 26.398438 82.195312 26.589844 C 81.773438 26.753906 81.398438 27.015625 81.101562 27.359375 C 80.820312 27.691406 80.675781 28.109375 80.675781 28.601562 C 80.675781 29.101562 80.832031 29.519531 81.152344 29.851562 C 81.46875 30.179688 81.992188 30.492188 82.742188 30.773438 C 83.488281 31.054688 84.476562 31.328125 85.703125 31.59375 C 86.925781 31.859375 88.453125 32.175781 90.28125 32.539062 C 92.101562 32.902344 93.695312 33.367188 95.054688 33.925781 C 96.414062 34.488281 97.550781 35.195312 98.460938 36.042969 C 99.359375 36.867188 100.058594 37.886719 100.496094 39.023438 C 100.941406 40.160156 101.167969 41.523438 101.167969 43.078125 C 101.160156 44.523438 100.777344 46.253906 100.199219 47.558594 Z M 100.199219 47.558594 "/>
<path style=" stroke:none;fill-rule:nonzero;fill:rgb(7.843137%,61.568627%,80%);fill-opacity:1;" d="M 138.269531 52.238281 L 131.910156 40.023438 C 133.863281 39.140625 135.367188 37.84375 136.425781 36.152344 C 137.484375 34.460938 138.019531 32.328125 138.019531 29.761719 C 138.019531 27.785156 137.6875 26.042969 137.015625 24.558594 C 136.34375 23.070312 135.386719 21.855469 134.144531 20.898438 C 132.898438 19.9375 131.378906 19.214844 129.597656 18.742188 C 127.820312 18.265625 125.804688 18.023438 123.546875 18.023438 L 109.640625 18.023438 C 109.265625 18.023438 108.941406 18.160156 108.667969 18.433594 C 108.402344 18.6875 108.253906 19.035156 108.257812 19.402344 L 108.257812 21.125 C 108.644531 21.898438 108.984375 22.699219 109.273438 23.515625 C 110.128906 25.945312 110.632812 28.484375 110.769531 31.058594 L 110.769531 31.125 C 112.601562 32.058594 113.753906 33.9375 113.753906 35.992188 C 113.753906 38.050781 112.601562 39.933594 110.769531 40.867188 L 110.769531 40.875 C 110.632812 43.449219 110.128906 45.992188 109.273438 48.421875 C 108.988281 49.238281 108.648438 50.039062 108.257812 50.8125 L 108.257812 52.535156 C 108.257812 52.914062 108.394531 53.234375 108.667969 53.507812 C 108.941406 53.78125 109.265625 53.921875 109.640625 53.921875 L 116.359375 53.921875 C 116.734375 53.921875 117.058594 53.785156 117.332031 53.507812 C 117.605469 53.234375 117.742188 52.914062 117.742188 52.535156 L 117.742188 41.566406 L 122.457031 41.566406 L 128.152344 52.546875 C 128.328125 52.855469 128.558594 53.15625 128.84375 53.46875 C 129.132812 53.777344 129.621094 53.929688 130.304688 53.929688 L 137.285156 53.929688 C 137.59375 53.929688 137.851562 53.820312 138.074219 53.597656 C 138.296875 53.375 138.40625 53.109375 138.40625 52.808594 C 138.429688 52.632812 138.375 52.4375 138.269531 52.238281 Z M 127.117188 32.746094 C 126.171875 33.292969 124.984375 33.566406 123.550781 33.566406 L 117.757812 33.566406 L 117.757812 25.96875 L 123.550781 25.96875 C 124.984375 25.96875 126.171875 26.242188 127.117188 26.789062 C 128.0625 27.339844 128.527344 28.328125 128.527344 29.761719 C 128.527344 31.203125 128.050781 32.199219 127.117188 32.746094 Z M 127.117188 32.746094 "/>
<path style=" stroke:none;fill-rule:nonzero;fill:rgb(7.843137%,61.568627%,80%);fill-opacity:1;" d="M 164.398438 18.433594 C 164.144531 18.167969 163.792969 18.019531 163.425781 18.023438 L 156.707031 18.023438 C 156.332031 18.023438 156.011719 18.160156 155.734375 18.433594 C 155.472656 18.6875 155.324219 19.035156 155.328125 19.402344 L 155.328125 39.664062 C 155.328125 41.714844 154.820312 43.324219 153.8125 44.488281 C 152.804688 45.652344 151.269531 46.230469 149.21875 46.230469 C 147.171875 46.230469 145.632812 45.644531 144.628906 44.488281 C 143.621094 43.328125 143.113281 41.714844 143.113281 39.664062 L 143.113281 19.402344 C 143.113281 19.03125 142.976562 18.707031 142.703125 18.433594 C 142.449219 18.167969 142.097656 18.019531 141.730469 18.019531 L 135.015625 18.019531 C 134.863281 18.019531 134.726562 18.039062 134.597656 18.085938 C 134.847656 18.25 135.09375 18.433594 135.332031 18.609375 C 136.960938 19.859375 138.25 21.503906 139.074219 23.382812 C 139.902344 25.234375 140.328125 27.386719 140.328125 29.769531 C 140.328125 32.875 139.644531 35.539062 138.300781 37.683594 C 137.472656 39.007812 136.402344 40.167969 135.152344 41.101562 L 140.257812 50.902344 L 140.273438 50.925781 L 140.28125 50.945312 C 140.554688 51.496094 140.699219 52.050781 140.730469 52.609375 C 141.417969 52.957031 142.132812 53.25 142.863281 53.492188 C 144.78125 54.128906 146.898438 54.445312 149.21875 54.445312 C 151.511719 54.445312 153.613281 54.128906 155.527344 53.492188 C 157.441406 52.863281 159.09375 51.929688 160.480469 50.699219 C 161.863281 49.46875 162.933594 47.953125 163.683594 46.136719 C 164.433594 44.324219 164.816406 42.238281 164.816406 39.878906 L 164.816406 19.402344 C 164.8125 19.035156 164.664062 18.6875 164.398438 18.433594 Z M 164.398438 18.433594 "/>
</g>
</svg>
